<svg xmlns="http://www.w3.org/2000/svg" viewBox="0 0 200 200" width="200" height="200" fill="none">
  <rect width="200" height="200" rx="44" fill="#F7F2EB"/>
  <g transform="translate(43 28) scale(0.92)">
  <path d="M24 6h52l36 36v90a14 14 0 0 1-14 14H24a14 14 0 0 1-14-14V20A14 14 0 0 1 24 6z" fill="#FFFFFF" stroke="#1F232B" stroke-width="8" stroke-linejoin="round"/>
  <path d="M76 6v22a14 14 0 0 0 14 14h22z" fill="#D96A1D" stroke="#1F232B" stroke-width="8" stroke-linejoin="round"/>
  <path d="M30 60h44M30 78h30" stroke="#1F232B" stroke-width="7" stroke-linecap="round" fill="none"/>
  <path d="M30 112h18" stroke="#1F232B" stroke-width="7" stroke-linecap="round" fill="none"/>
  <circle cx="90" cy="112" r="23" fill="#D96A1D"/>
  <path d="M78 112l9 9 16-18" stroke="#FFFFFF" stroke-width="7" stroke-linecap="round" stroke-linejoin="round" fill="none"/>
  </g>
</svg>
